<svg version="1.1" xmlns="http://www.w3.org/2000/svg" viewBox="-252.92799682617186 -1054.72001953125 2026.4960693359376 1372.160009765625"><desc>Created with Snap</desc><defs></defs><g><rect x="-252.92799682617186" y="-1054.72001953125" width="2026.4960693359376" height="1372.160009765625" fill="#37393a" style=""></rect><g><g transform="matrix(1.024,0,0,-1.024,0,0)"><path d="M375 55Q545 55 545 223L545 293L461 314L461 359L729 359L729 314L645 293L645 0L593 0L568 79Q524 31 478 10Q432 -10 369 -10Q232 -10 150 74Q103 122 78 193Q53 264 53 352Q53 441 79 517Q106 593 154 644Q235 730 373 730Q433 730 475 711Q518 693 556 651L578 720L633 720L633 499L572 499Q543 676 369 676Q318 676 284 659Q250 643 225 608Q196 566 180 502Q164 438 164 366Q164 291 181 228Q199 166 231 122Q257 87 290 71Q324 55 375 55ZM1112 336L1286 656L1205 677L1205 720L1432 720L1432 677L1350 656L1146 282L1146 64L1240 43L1240 0L952 0L952 43L1046 64L1046 266L831 656L748 677L748 720L1024 720L1024 677L940 656L1112 336Z" fill="#ffffff" style=""></path></g></g></g></svg>